<?xml version="1.0" encoding="utf-8"?>
<svg id="master-artboard" viewBox="0 0 120 120" version="1.1" xmlns="http://www.w3.org/2000/svg" x="0px" y="0px" style="enable-background:new 0 0 1400 980;" width="120px" height="120px"><defs><style id="ee-google-fonts">@import url(https://fonts.googleapis.com/css?family=Anton:400|Roboto+Slab:100,300,400,700);</style><path id="text-path-0" d="M 778.8464965820312 213.4612274169922 A 100 18 0 0 1 988.3533935546875 213.4612274169922 A 100 18 0 0 1 778.8464965820312 213.4612274169922 Z" style="fill: none; stroke: red; stroke-width: 2;"/><path id="text-path-1" d="M 664.5464477539062 37.96122741699219 A 100 19 0 0 1 876.5812377929688 37.96122741699219 A 100 19 0 0 1 664.5464477539062 37.96122741699219" style="fill: none; stroke: red; stroke-width: 2;"/><path id="text-path-2" d="M 765.3650512695312 211.70851135253906 A 100 17 0 0 1 991.5017700195312 211.70851135253906 A 100 17 0 0 1 765.3650512695312 211.70851135253906" style="fill: none; stroke: red; stroke-width: 2;"/><path id="path-1" d="M 765.3650512695312 211.70851135253906 A 100 17 0 0 1 991.5017700195312 211.70851135253906 A 100 17 0 0 1 765.3650512695312 211.70851135253906" style="fill: none; stroke: red; stroke-width: 2;"/></defs><rect id="ee-background" x="0" y="0" width="120" height="120" style="fill: white; fill-opacity: 0; pointer-events: none;"/>


<path d="M 418.85430908203125 130.0399932861328 C 413.6142883300781 131.4066619873047 406.7009582519531 132.08999633789062 398.1142883300781 132.08999633789062 C 389.5209655761719 132.08999633789062 382.16094970703125 131.02000427246094 376.0343017578125 128.8800048828125 C 369.9009704589844 126.73999786376953 364.6242980957031 123.57333374023438 360.20428466796875 119.37999725341797 C 350.72430419921875 110.54000091552734 345.9842834472656 98.23333740234375 345.9842834472656 82.45999908447266 C 345.9842834472656 72.16667175292969 348.4476318359375 63.279998779296875 353.3742980957031 55.80000305175781 C 360.0276184082031 45.63999938964844 370.25762939453125 39.16999816894531 384.0643005371094 36.38999938964844 C 388.3042907714844 35.56999969482422 393.5009765625 35.160003662109375 399.654296875 35.160003662109375 C 405.80096435546875 35.160003662109375 411.1076354980469 35.4566650390625 415.57427978515625 36.05000305175781 L 415.57427978515625 49.16999816894531 C 411.654296875 48.16999816894531 406.06097412109375 47.66999816894531 398.7943115234375 47.66999816894531 C 391.5276184082031 47.66999816894531 385.5709533691406 48.48999786376953 380.9242858886719 50.12999725341797 C 376.2709655761719 51.769996643066406 372.4176330566406 54.116668701171875 369.3642883300781 57.16999816894531 C 363.25762939453125 63.143333435058594 360.20428466796875 71.57333374023438 360.20428466796875 82.45999908447266 C 360.20428466796875 93.54000091552734 363.21429443359375 102.40666198730469 369.2342834472656 109.05999755859375 C 375.7943115234375 116.3066635131836 385.1576232910156 119.93000030517578 397.32427978515625 119.93000030517578 C 400.1509704589844 119.93000030517578 402.7709655761719 119.8133316040039 405.1842956542969 119.58000183105469 L 405.1842956542969 84.52000427246094 L 418.85430908203125 84.52000427246094 L 418.85430908203125 130.0399932861328 ZM 437.6357727050781 35.839996337890625 L 461.6357727050781 35.839996337890625 C 477.35577392578125 35.839996337890625 487.49578857421875 40.37666320800781 492.0557861328125 49.44999694824219 C 493.73577880859375 52.86333465576172 494.5757751464844 56.25666809082031 494.5757751464844 59.62999725341797 C 494.5757751464844 63.003334045410156 494.2224426269531 65.68333435058594 493.5157775878906 67.66999816894531 C 492.8157958984375 69.6500015258789 491.8724365234375 71.45999908447266 490.685791015625 73.0999984741211 C 488.45245361328125 76.19999694824219 485.4891052246094 78.84333801269531 481.7957763671875 81.02999877929688 L 481.7957763671875 81.30000305175781 C 488.6357727050781 83.25999450683594 493.6724548339844 86.69999694824219 496.90576171875 91.6199951171875 C 499.36578369140625 95.36000061035156 500.59576416015625 99.51000213623047 500.59576416015625 104.06999969482422 C 500.59576416015625 108.62333679199219 499.6957702636719 112.5633316040039 497.8957824707031 115.88999938964844 C 496.09576416015625 119.21666717529297 493.59912109375 121.99666595458984 490.40576171875 124.2300033569336 C 483.8924560546875 128.7433319091797 475.1891174316406 131 464.2957763671875 131 L 437.6357727050781 131 L 437.6357727050781 35.839996337890625 M 464.22576904296875 77.33999633789062 C 471.5657653808594 77.33999633789062 476.512451171875 74.44667053222656 479.0657653808594 68.66000366210938 C 479.93243408203125 66.6066665649414 480.36578369140625 64.31666564941406 480.36578369140625 61.790000915527344 C 480.36578369140625 59.25666809082031 480.0457763671875 57.06666564941406 479.40576171875 55.220001220703125 C 478.7657775878906 53.37999725341797 477.7391052246094 51.796669006347656 476.3257751464844 50.470001220703125 C 473.3191223144531 47.643333435058594 468.7857666015625 46.230003356933594 462.72576904296875 46.230003356933594 L 451.3057861328125 46.230003356933594 L 451.3057861328125 77.33999633789062 L 464.22576904296875 77.33999633789062 M 486.37579345703125 104.33999633789062 C 486.37579345703125 93.26666259765625 479.7224426269531 87.72999572753906 466.415771484375 87.72999572753906 L 451.3057861328125 87.72999572753906 L 451.3057861328125 120.61000061035156 L 464.2957763671875 120.61000061035156 C 474.32244873046875 120.61000061035156 481.089111328125 117.58000183105469 484.59576416015625 111.52000427246094 C 485.7824401855469 109.46666717529297 486.37579345703125 107.07333374023438 486.37579345703125 104.33999633789062 Z" transform="matrix(0.6852701306343079, 0, 0, 0.6852701306343079, -229.70709228515625, -90.73092651367188)" style="white-space: pre; fill: rgb(255, 254, 240); fill-opacity: 1; color: rgb(255, 254, 240); stroke: rgb(0, 0, 0); stroke-width: 40; stroke-opacity: 0;"/></svg>